<?xml version="1.0" encoding="utf-8"?>
<!-- Generator: Adobe Illustrator 25.0.0, SVG Export Plug-In . SVG Version: 6.00 Build 0)  -->
<svg version="1.1" id="Capa_1" xmlns="http://www.w3.org/2000/svg" xmlns:xlink="http://www.w3.org/1999/xlink" x="0px" y="0px"
	 viewBox="0 0 292 198" style="enable-background:new 0 0 292 198;" xml:space="preserve">
<style type="text/css">
	.st0{fill:none;stroke:url(#SVGID_1_);stroke-miterlimit:10;}
	.st1{opacity:0.6;}
	.st2{font-family:'KozGoPr6N-Regular-90ms-RKSJ-H';}
	.st3{font-size:10.1221px;fill:white}
	.st4{fill:url(#SVGID_2_);stroke:url(#SVGID_3_);stroke-miterlimit:10;}
	.st5{fill:url(#SVGID_4_);stroke:url(#SVGID_5_);stroke-miterlimit:10;}
	.st6{fill:none;stroke:url(#SVGID_6_);stroke-miterlimit:10;}
	.st7{fill:url(#SVGID_7_);stroke:url(#SVGID_8_);stroke-miterlimit:10;}
	.st8{fill:url(#SVGID_9_);stroke:url(#SVGID_10_);stroke-miterlimit:10;}
	.st9{fill:url(#SVGID_11_);stroke:url(#SVGID_12_);stroke-miterlimit:10;}
	.st10{fill:none;stroke:url(#SVGID_13_);stroke-width:2;stroke-miterlimit:10;}
	.st11{fill:url(#SVGID_14_);}
	.st12{fill:url(#SVGID_15_);}
	.st13{fill:url(#SVGID_16_);}
	.st14{fill:url(#SVGID_17_);}
	.st15{fill:url(#SVGID_18_);}
	.st16{stroke:#000000;stroke-miterlimit:10;}
	.st17{fill:url(#SVGID_19_);}
</style>
<linearGradient id="SVGID_1_" gradientUnits="userSpaceOnUse" x1="90.1131" y1="23.8237" x2="204.4398" y2="23.8237">
	<stop  offset="0" style="stop-color:#103240"/>
	<stop  offset="1" style="stop-color:#05090C"/>
</linearGradient>
<polyline class="st0" points="90.27,33.36 147.64,14.34 204.28,33.36 "/>
<text transform="matrix(1.3664 0 0 1 96.322 103.9601)" class="st1 st2 st3">SECURITY ITSELF</text>
<linearGradient id="SVGID_2_" gradientUnits="userSpaceOnUse" x1="81.8592" y1="33.3589" x2="98.6817" y2="33.3589">
	<stop  offset="0" style="stop-color:#2D7C8C"/>
	<stop  offset="1" style="stop-color:#215B73"/>
</linearGradient>
<linearGradient id="SVGID_3_" gradientUnits="userSpaceOnUse" x1="81.3592" y1="33.3589" x2="99.1817" y2="33.3589">
	<stop  offset="0" style="stop-color:#103240"/>
	<stop  offset="1" style="stop-color:#05090C"/>
</linearGradient>
<circle class="st4" cx="90.27" cy="33.36" r="8.41"/>
<linearGradient id="SVGID_4_" gradientUnits="userSpaceOnUse" x1="195.8694" y1="33.3589" x2="212.6919" y2="33.3589">
	<stop  offset="0" style="stop-color:#2D7C8C"/>
	<stop  offset="1" style="stop-color:#215B73"/>
</linearGradient>
<linearGradient id="SVGID_5_" gradientUnits="userSpaceOnUse" x1="195.3694" y1="33.3589" x2="213.1919" y2="33.3589">
	<stop  offset="0" style="stop-color:#103240"/>
	<stop  offset="1" style="stop-color:#05090C"/>
</linearGradient>
<circle class="st5" cx="204.28" cy="33.36" r="8.41"/>
<linearGradient id="SVGID_6_" gradientUnits="userSpaceOnUse" x1="281.6435" y1="595.747" x2="396.3675" y2="595.747" gradientTransform="matrix(-1 0 0 -1 486.4706 732.7965)">
	<stop  offset="0" style="stop-color:#103240"/>
	<stop  offset="1" style="stop-color:#05090C"/>
</linearGradient>
<polyline class="st6" points="204.58,121.14 147.62,152.82 90.34,121.28 "/>
<linearGradient id="SVGID_7_" gradientUnits="userSpaceOnUse" x1="273.4753" y1="611.6551" x2="290.2978" y2="611.6551" gradientTransform="matrix(-1 0 0 -1 486.4706 732.7965)">
	<stop  offset="0" style="stop-color:#2D7C8C"/>
	<stop  offset="1" style="stop-color:#215B73"/>
</linearGradient>
<linearGradient id="SVGID_8_" gradientUnits="userSpaceOnUse" x1="272.9753" y1="611.6551" x2="290.7978" y2="611.6551" gradientTransform="matrix(-1 0 0 -1 486.4706 732.7965)">
	<stop  offset="0" style="stop-color:#103240"/>
	<stop  offset="1" style="stop-color:#05090C"/>
</linearGradient>
<circle class="st7" cx="204.58" cy="121.14" r="8.41"/>
<linearGradient id="SVGID_9_" gradientUnits="userSpaceOnUse" x1="330.4266" y1="718.4393" x2="347.2491" y2="718.4393" gradientTransform="matrix(-1 0 0 -1 486.4706 732.7965)">
	<stop  offset="0" style="stop-color:#2D7C8C"/>
	<stop  offset="1" style="stop-color:#215B73"/>
</linearGradient>
<linearGradient id="SVGID_10_" gradientUnits="userSpaceOnUse" x1="329.9266" y1="718.4393" x2="347.7491" y2="718.4393" gradientTransform="matrix(-1 0 0 -1 486.4706 732.7965)">
	<stop  offset="0" style="stop-color:#103240"/>
	<stop  offset="1" style="stop-color:#05090C"/>
</linearGradient>
<circle class="st8" cx="147.63" cy="14.36" r="8.41"/>
<linearGradient id="SVGID_11_" gradientUnits="userSpaceOnUse" x1="387.7151" y1="611.5168" x2="404.5376" y2="611.5168" gradientTransform="matrix(-1 0 0 -1 486.4706 732.7965)">
	<stop  offset="0" style="stop-color:#2D7C8C"/>
	<stop  offset="1" style="stop-color:#215B73"/>
</linearGradient>
<linearGradient id="SVGID_12_" gradientUnits="userSpaceOnUse" x1="387.2151" y1="611.5168" x2="405.0376" y2="611.5168" gradientTransform="matrix(-1 0 0 -1 486.4706 732.7965)">
	<stop  offset="0" style="stop-color:#103240"/>
	<stop  offset="1" style="stop-color:#05090C"/>
</linearGradient>
<circle class="st9" cx="90.34" cy="121.28" r="8.41"/>
<g>
	<linearGradient id="SVGID_13_" gradientUnits="userSpaceOnUse" x1="147.2756" y1="189.5541" x2="147.2756" y2="114.3642">
		<stop  offset="0" style="stop-color:#103240"/>
		<stop  offset="1" style="stop-color:#05090C"/>
	</linearGradient>
	<path class="st10" d="M147.28,115.46l-30.87,13.52v18.51c0,13.05,6.27,25.11,16.44,31.63l14.43,9.25l14.42-9.25
		c10.17-6.52,16.44-18.58,16.44-31.63v-18.51L147.28,115.46z"/>
	<linearGradient id="SVGID_14_" gradientUnits="userSpaceOnUse" x1="116.4102" y1="158.6713" x2="147.282" y2="158.6713">
		<stop  offset="0" style="stop-color:#50B2BF"/>
		<stop  offset="1" style="stop-color:#215B73"/>
	</linearGradient>
	<path class="st11" d="M147.28,148.78v39.58l-14.43-9.25c-10.18-6.52-16.44-18.58-16.44-31.63v-18.51l30.86,19.81H147.28z"/>
	<linearGradient id="SVGID_15_" gradientUnits="userSpaceOnUse" x1="116.4102" y1="132.1192" x2="178.1409" y2="132.1192">
		<stop  offset="0" style="stop-color:#50B2BF"/>
		<stop  offset="1" style="stop-color:#215B73"/>
	</linearGradient>
	<polygon class="st12" points="178.14,128.98 147.28,148.77 147.28,148.78 147.27,148.78 116.41,128.98 147.28,115.46 	"/>
	<linearGradient id="SVGID_16_" gradientUnits="userSpaceOnUse" x1="147.282" y1="158.6713" x2="178.1409" y2="158.6713">
		<stop  offset="0" style="stop-color:#50B2BF"/>
		<stop  offset="1" style="stop-color:#215B73"/>
	</linearGradient>
	<path class="st13" d="M178.14,128.98v18.51c0,13.05-6.27,25.11-16.44,31.63l-14.42,9.25v-39.6L178.14,128.98z"/>
	<g>
		<linearGradient id="SVGID_17_" gradientUnits="userSpaceOnUse" x1="147.2756" y1="169.8806" x2="169.9596" y2="169.8806">
			<stop  offset="0" style="stop-color:#103240"/>
			<stop  offset="1" style="stop-color:#05090C"/>
		</linearGradient>
		<path class="st14" d="M169.96,162.46c-2.37,4.68-5.84,8.66-10.17,11.44l-12.52,8.02v-10.11l7.93-5.08
			c3.28-2.11,5.88-5.23,7.54-8.9L169.96,162.46z"/>
		<linearGradient id="SVGID_18_" gradientUnits="userSpaceOnUse" x1="147.2756" y1="126.8589" x2="163.2394" y2="126.8589">
			<stop  offset="0" style="stop-color:#103240"/>
			<stop  offset="1" style="stop-color:#05090C"/>
		</linearGradient>
		<polygon class="st15" points="163.24,127.54 154.86,133.17 147.28,129.84 147.28,120.55 		"/>
	</g>
	<path class="st16" d="M147.28,138.26"/>
	<linearGradient id="SVGID_19_" gradientUnits="userSpaceOnUse" x1="121.1463" y1="151.2372" x2="147.2756" y2="151.2372">
		<stop  offset="0" style="stop-color:#103240"/>
		<stop  offset="1" style="stop-color:#05090C"/>
	</linearGradient>
	<path class="st17" d="M129.65,137.56v10.34c0,7.78,3.71,15,9.7,18.84l7.93,5.08v10.11l-12.52-8.02c-8.39-5.39-13.61-15.34-13.61-26
		v-15.89l0.79-0.35l25.34-11.1v9.29l-16.73,7.34h-0.01L129.65,137.56z"/>
</g>
<path d="M95.83,88.65h-4.02l-4.98-9.22c-0.49-0.89-1.03-1.72-1.62-2.5c-0.59-0.78-1.29-1.46-2.08-2.04
	c-0.79-0.58-1.7-1.04-2.72-1.38c-1.02-0.34-2.21-0.51-3.58-0.51H59.35v15.65h-3.65v-34.7H78.2c2.1,0,4.13,0.13,6.1,0.4
	c1.96,0.26,3.71,0.73,5.25,1.41c1.54,0.68,2.76,1.61,3.68,2.8c0.91,1.19,1.37,2.72,1.37,4.58c0,1.16-0.21,2.24-0.62,3.25
	s-1.04,1.9-1.87,2.69c-0.84,0.79-1.9,1.47-3.2,2.03c-1.29,0.56-2.81,0.97-4.54,1.22c0.94,0.51,1.72,0.99,2.33,1.46
	c0.61,0.46,1.13,0.96,1.58,1.49c0.44,0.53,0.84,1.11,1.19,1.74s0.75,1.36,1.21,2.19L95.83,88.65z M59.35,70.46H76.7
	c2.47,0,4.58-0.13,6.35-0.38c1.77-0.25,3.22-0.67,4.36-1.25c1.14-0.58,1.99-1.34,2.53-2.27c0.55-0.93,0.82-2.07,0.82-3.42
	c0-2.39-1.09-4.09-3.26-5.12c-2.18-1.02-5.43-1.54-9.75-1.54h-18.4V70.46z"/>
<path d="M144.08,54.08l-19.54,19.81v14.89h-3.65V73.88l-19.73-19.81h4.29l17.26,17.14l17.12-17.14H144.08z"/>
<path d="M189.09,75.67c-0.57-0.91-1.34-1.69-2.29-2.34c-0.95-0.65-2.08-1.2-3.37-1.65c-1.29-0.45-2.65-0.83-4.07-1.13
	c-1.42-0.31-2.89-0.57-4.38-0.79c-1.5-0.22-2.95-0.44-4.36-0.64c-2.41-0.35-4.42-0.72-6.04-1.12c-1.62-0.4-2.91-0.86-3.9-1.38
	s-1.68-1.11-2.09-1.76c-0.41-0.65-0.62-1.42-0.62-2.29c0-1.92,1.11-3.42,3.33-4.52c1.87-0.93,4.52-1.44,7.87-1.59
	c1.4,0.06,2.71,0.18,3.87,0.41c1.6,0.32,2.98,0.75,4.14,1.31c1.16,0.56,2.11,1.23,2.84,2c0.73,0.77,1.26,1.61,1.59,2.51h6.94
	c-0.26-1.37-0.87-2.59-1.83-3.67s-2.2-2-3.74-2.75c-1.54-0.75-3.34-1.33-5.4-1.73s-4.32-0.6-6.78-0.6c-0.59,0-2.91,0-3.55,0
	c-2.47,0-4.72,0.21-6.76,0.64c-2.04,0.43-3.79,1.03-5.24,1.8c-1.45,0.77-2.58,1.7-3.37,2.78s-1.19,2.27-1.19,3.58
	c0,1.2,0.29,2.26,0.88,3.16c0.59,0.91,1.5,1.71,2.73,2.42c1.23,0.7,2.8,1.32,4.69,1.85c1.89,0.53,4.16,1,6.81,1.41
	c3.2,0.47,5.88,0.93,8.04,1.38c2.16,0.45,3.9,0.96,5.22,1.53c1.32,0.57,2.26,1.24,2.82,2c0.56,0.76,0.84,1.71,0.84,2.83
	c0,1.06-0.32,2.01-0.97,2.86c-0.65,0.85-1.58,1.57-2.8,2.17c-1.22,0.6-2.69,1.06-4.41,1.38c-1.28,0.24-2.71,0.35-4.23,0.41
	c-1.32-0.05-2.62-0.14-3.84-0.31c-1.82-0.24-3.44-0.66-4.87-1.25c-1.42-0.59-2.62-1.39-3.59-2.38c-0.97-1-1.63-2.25-1.98-3.76h-7.03
	c0.15,1.57,0.66,2.98,1.54,4.23c0.88,1.25,2.15,2.32,3.81,3.21c1.66,0.89,3.71,1.57,6.15,2.05c2.44,0.48,5.29,0.72,8.55,0.72
	c0.36,0,2.68,0,3.55,0c2.5,0,4.81-0.24,6.94-0.72c2.13-0.48,3.96-1.15,5.51-2.02c1.54-0.87,2.75-1.9,3.61-3.09
	c0.87-1.19,1.3-2.5,1.3-3.93C189.95,77.65,189.67,76.58,189.09,75.67z"/>
<path d="M232.56,86.11h-28.79V71.85h25.59h3.67v-2.53h-3.67h-25.59V56.48h27.56H235v-2.54h-3.67h-31.21h-3.67v34.7h3.67h32.44h3.67
	v-2.54H232.56z"/>
<path d="M281.87,78.68h-3.56c-0.65,2.5-2.33,4.39-5.04,5.69c-2.37,1.13-5.33,1.74-8.82,1.89c-1.98-0.12-3.81-0.43-5.5-0.92
	c-2.26-0.65-4.19-1.62-5.79-2.88c-1.61-1.27-2.84-2.84-3.71-4.71c-0.87-1.87-1.3-4.04-1.3-6.49c0-2.45,0.43-4.61,1.3-6.46
	c0.87-1.85,2.11-3.4,3.71-4.63c1.61-1.24,3.55-2.17,5.84-2.81c1.69-0.47,3.51-0.76,5.48-0.88c1.44,0.07,2.84,0.21,4.14,0.48
	c1.72,0.37,3.25,0.87,4.58,1.52c1.33,0.64,2.43,1.4,3.32,2.27c0.88,0.87,1.49,1.81,1.81,2.81h3.56h0.11h3.56
	c-0.44-1.41-1.24-2.71-2.39-3.88c-1.15-1.18-2.56-2.19-4.24-3.04c-1.68-0.85-3.57-1.51-5.68-1.98c-2.11-0.47-4.33-0.71-6.65-0.71
	c-0.76,0-3.11,0-3.56,0c-3.39,0-6.45,0.4-9.18,1.21c-2.73,0.81-5.06,1.96-6.99,3.47c-1.93,1.5-3.41,3.32-4.44,5.45
	c-1.03,2.13-1.55,4.52-1.55,7.18c0,2.68,0.52,5.1,1.55,7.26c1.03,2.16,2.51,3.99,4.42,5.51c1.92,1.51,4.24,2.69,6.96,3.51
	c2.73,0.83,5.8,1.24,9.22,1.24c0.49,0,2.83,0,3.56,0c2.51,0,4.83-0.22,6.99-0.68c2.15-0.45,4.05-1.1,5.7-1.96
	c1.65-0.86,3.02-1.92,4.11-3.18c1.09-1.26,1.81-2.69,2.17-4.28h-3.56H281.87z"/>
<path d="M45.69,63.5c-0.32-1-0.92-1.93-1.8-2.79c-0.88-0.86-1.98-1.62-3.3-2.26c-1.32-0.64-2.84-1.14-4.55-1.51
	s-3.55-0.55-5.52-0.55c-2.78,0-5.31,0.32-7.58,0.95s-4.21,1.56-5.8,2.79c-1.6,1.23-2.83,2.77-3.69,4.61
	c-0.86,1.84-1.3,3.98-1.3,6.42s0.43,4.59,1.3,6.45c0.86,1.86,2.1,3.42,3.69,4.68s3.52,2.22,5.76,2.87s4.74,0.98,7.5,0.98
	c4.16,0,7.59-0.65,10.29-1.94c2.7-1.29,4.37-3.18,5.01-5.66h3.65c-0.35,1.59-1.07,3-2.15,4.26s-2.45,2.3-4.09,3.16
	c-1.64,0.85-3.53,1.5-5.67,1.95c-2.14,0.45-4.45,0.67-6.95,0.67c-3.4,0-6.45-0.41-9.17-1.24c-2.71-0.82-5.02-1.99-6.92-3.49
	c-1.9-1.5-3.37-3.33-4.4-5.48c-1.03-2.15-1.54-4.55-1.54-7.21c0-2.64,0.51-5.02,1.54-7.14s2.5-3.92,4.42-5.41
	c1.92-1.49,4.23-2.64,6.95-3.45s5.75-1.21,9.12-1.21c2.32,0,4.52,0.23,6.62,0.7c2.1,0.47,3.98,1.12,5.65,1.97
	c1.67,0.84,3.08,1.85,4.22,3.02c1.14,1.17,1.93,2.46,2.37,3.86H45.69z"/>
</svg>
