<?xml version="1.0" encoding="utf-8"?>
<!-- Generator: Adobe Illustrator 25.0.0, SVG Export Plug-In . SVG Version: 6.00 Build 0)  -->
<svg version="1.1" id="Capa_1" xmlns="http://www.w3.org/2000/svg" xmlns:xlink="http://www.w3.org/1999/xlink" x="0px" y="0px"
	 viewBox="0 0 161 102.6" style="enable-background:new 0 0 161 102.6;" xml:space="preserve">
<style type="text/css">
	.st0{fill:#FFFFFF;}
	.st1{clip-path:url(#SVGID_2_);}
	.st2{fill:none;stroke:url(#SVGID_3_);stroke-miterlimit:10;}
	.st3{fill:url(#SVGID_4_);}
	.st4{fill:url(#SVGID_5_);}
	.st5{stroke:#000000;stroke-miterlimit:10;}
	.st6{fill:url(#SVGID_6_);}
</style>
<g>
	<path class="st0" d="M104.4,55.9c-0.3-0.5-0.7-0.9-1.2-1.2c-0.5-0.3-1.1-0.6-1.7-0.8c-0.7-0.2-1.3-0.4-2.1-0.6
		c-0.7-0.2-1.5-0.3-2.2-0.4s-1.5-0.2-2.2-0.3c-1.2-0.2-2.2-0.4-3.1-0.6s-1.5-0.4-2-0.7c-0.5-0.3-0.8-0.6-1.1-0.9
		c-0.2-0.3-0.3-0.7-0.3-1.2c0-1,0.6-1.7,1.7-2.3c0.9-0.5,2.3-0.7,4-0.8c0.7,0,1.4,0.1,2,0.2c0.8,0.2,1.5,0.4,2.1,0.7
		c0.6,0.3,1.1,0.6,1.4,1c0.4,0.4,0.6,0.8,0.8,1.3h3.5c-0.1-0.7-0.4-1.3-0.9-1.9c-0.5-0.5-1.1-1-1.9-1.4c-0.8-0.4-1.7-0.7-2.7-0.9
		c-1-0.2-2.2-0.3-3.4-0.3c-0.3,0-1.5,0-1.8,0c-1.2,0-2.4,0.1-3.4,0.3c-1,0.2-1.9,0.5-2.7,0.9c-0.7,0.4-1.3,0.9-1.7,1.4
		s-0.6,1.2-0.6,1.8c0,0.6,0.2,1.1,0.4,1.6c0.3,0.5,0.8,0.9,1.4,1.2c0.6,0.4,1.4,0.7,2.4,0.9s2.1,0.5,3.4,0.7c1.6,0.2,3,0.5,4.1,0.7
		c1.1,0.2,2,0.5,2.7,0.8c0.7,0.3,1.2,0.6,1.4,1s0.4,0.9,0.4,1.4c0,0.5-0.2,1-0.5,1.5c-0.3,0.4-0.8,0.8-1.4,1.1
		c-0.6,0.3-1.4,0.5-2.2,0.7c-0.7,0.1-1.4,0.2-2.1,0.2c-0.7,0-1.3-0.1-1.9-0.2c-0.9-0.1-1.8-0.3-2.5-0.6s-1.3-0.7-1.8-1.2
		s-0.8-1.1-1-1.9h-3.6c0.1,0.8,0.3,1.5,0.8,2.2c0.4,0.6,1.1,1.2,1.9,1.6c0.8,0.5,1.9,0.8,3.1,1c1.2,0.2,2.7,0.4,4.3,0.4
		c0.2,0,1.4,0,1.8,0c1.3,0,2.4-0.1,3.5-0.4c1.1-0.2,2-0.6,2.8-1s1.4-1,1.8-1.6c0.4-0.6,0.7-1.3,0.7-2
		C104.8,56.9,104.7,56.4,104.4,55.9z"/>
	<path class="st0" d="M126.5,61.2h-14.6V54h13h1.9v-1.3h-1.9h-13v-6.5h14h1.9v-1.3h-1.9H110h-1.9v17.6h1.9h16.4h1.9v-1.3L126.5,61.2
		L126.5,61.2z"/>
	<path class="st0" d="M151.5,57.5h-1.8c-0.3,1.3-1.2,2.2-2.6,2.9c-1.2,0.6-2.7,0.9-4.5,1c-1-0.1-1.9-0.2-2.8-0.5
		c-1.1-0.3-2.1-0.8-2.9-1.5c-0.8-0.6-1.4-1.4-1.9-2.4s-0.7-2-0.7-3.3s0.2-2.3,0.7-3.3s1.1-1.7,1.9-2.3c0.8-0.6,1.8-1.1,3-1.4
		c0.9-0.2,1.8-0.4,2.8-0.5c0.7,0,1.4,0.1,2.1,0.2c0.9,0.2,1.6,0.4,2.3,0.8c0.7,0.3,1.2,0.7,1.7,1.2c0.4,0.4,0.8,0.9,0.9,1.4h1.8h0.1
		h1.8c-0.2-0.7-0.6-1.4-1.2-2c-0.6-0.6-1.3-1.1-2.1-1.5c-0.9-0.4-1.8-0.8-2.9-1s-2.2-0.4-3.4-0.4c-0.4,0-1.6,0-1.8,0
		c-1.7,0-3.3,0.2-4.6,0.6c-1.4,0.4-2.6,1-3.5,1.8s-1.7,1.7-2.2,2.8c-0.5,1.1-0.8,2.3-0.8,3.6c0,1.4,0.3,2.6,0.8,3.7s1.3,2,2.2,2.8
		c1,0.8,2.1,1.4,3.5,1.8s2.9,0.6,4.7,0.6c0.2,0,1.4,0,1.8,0c1.3,0,2.4-0.1,3.5-0.3s2.1-0.6,2.9-1c0.8-0.4,1.5-1,2.1-1.6
		c0.6-0.6,0.9-1.4,1.1-2.2L151.5,57.5L151.5,57.5L151.5,57.5z"/>
	<path class="st0" d="M53,62.5h-2l-2.5-4.7c-0.2-0.5-0.5-0.9-0.8-1.3s-0.7-0.7-1-1c-0.4-0.3-0.9-0.5-1.4-0.7
		c-0.5-0.2-1.1-0.3-1.8-0.3h-8.9v7.9h-1.8V44.9H44c1.1,0,2.1,0.1,3.1,0.2c1,0.1,1.9,0.4,2.7,0.7s1.4,0.8,1.9,1.4
		c0.5,0.6,0.7,1.4,0.7,2.3c0,0.6-0.1,1.1-0.3,1.7c-0.2,0.5-0.5,1-1,1.4c-0.4,0.4-1,0.7-1.6,1s-1.4,0.5-2.3,0.6
		c0.5,0.3,0.9,0.5,1.2,0.7s0.6,0.5,0.8,0.8c0.2,0.3,0.4,0.6,0.6,0.9s0.4,0.7,0.6,1.1L53,62.5z M34.5,53.3h8.8c1.2,0,2.3-0.1,3.2-0.2
		s1.6-0.3,2.2-0.6s1-0.7,1.3-1.2c0.3-0.5,0.4-1,0.4-1.7c0-1.2-0.5-2.1-1.7-2.6c-1.1-0.5-2.8-0.8-4.9-0.8h-9.3L34.5,53.3z"/>
	<path class="st0" d="M77.4,45l-9.9,10v7.5h-1.8V55l-10-10h2.2l8.8,8.7l8.7-8.7H77.4z"/>
	<path class="st0" d="M27.6,49.8c-0.2-0.5-0.5-1-0.9-1.4c-0.5-0.4-1-0.8-1.7-1.1s-1.4-0.6-2.3-0.8c-0.9-0.2-1.8-0.3-2.8-0.3
		c-1.4,0-2.7,0.2-3.8,0.5s-2.1,0.8-2.9,1.4s-1.4,1.4-1.9,2.3c-0.4,0.9-0.7,2-0.7,3.3s0.2,2.3,0.7,3.3s1.1,1.7,1.9,2.4
		c0.8,0.6,1.8,1.1,2.9,1.5s2.4,0.5,3.8,0.5c2.1,0,3.9-0.3,5.2-1s2.2-1.6,2.5-2.9h1.9c-0.2,0.8-0.5,1.5-1.1,2.2
		c-0.5,0.6-1.2,1.2-2.1,1.6s-1.8,0.8-2.9,1c-1.1,0.2-2.3,0.3-3.5,0.3c-1.7,0-3.3-0.2-4.6-0.6s-2.5-1-3.5-1.8s-1.7-1.7-2.2-2.8
		C9,56.2,8.7,55,8.7,53.6c0-1.3,0.3-2.5,0.8-3.6c0.5-1.1,1.3-2,2.2-2.8s2.1-1.3,3.5-1.8s2.9-0.6,4.6-0.6c1.2,0,2.3,0.1,3.4,0.4
		s2,0.6,2.9,1s1.6,0.9,2.1,1.5s1,1.2,1.2,2L27.6,49.8L27.6,49.8z"/>
</g>
<g>
	<g>
		<defs>
			<path id="SVGID_1_" d="M38.9,6.4v96.1h90.4V6.4H38.9z M121.8,64.5H39.9V43.1h81.9V64.5z"/>
		</defs>
		<clipPath id="SVGID_2_">
			<use xlink:href="#SVGID_1_"  style="overflow:visible;"/>
		</clipPath>
		<g class="st1">
			
				<linearGradient id="SVGID_3_" gradientUnits="userSpaceOnUse" x1="43.61" y1="48.0108" x2="118.38" y2="48.0108" gradientTransform="matrix(1 0 0 -1 0 101.8898)">
				<stop  offset="0" style="stop-color:#50B2BF"/>
				<stop  offset="1" style="stop-color:#215B73"/>
			</linearGradient>
			<path class="st2" d="M81,10.3L44.1,26.4v22.1c0,15.6,7.5,30,19.7,37.8l17.2,11l17.2-11.1c12.2-7.8,19.7-22.2,19.7-37.8V26.4
				L81,10.3z"/>
			<g>
				
					<linearGradient id="SVGID_4_" gradientUnits="userSpaceOnUse" x1="80.99" y1="26.5648" x2="108.1" y2="26.5648" gradientTransform="matrix(1 0 0 -1 0 101.8898)">
					<stop  offset="0" style="stop-color:#50B2BF"/>
					<stop  offset="1" style="stop-color:#215B73"/>
				</linearGradient>
				<path class="st3" d="M108.1,66.5c-2.8,5.6-7,10.3-12.2,13.7l-15,9.6V77.6l9.5-6.1c3.9-2.5,7-6.2,9-10.6L108.1,66.5z"/>
				
					<linearGradient id="SVGID_5_" gradientUnits="userSpaceOnUse" x1="80.99" y1="77.9798" x2="100.07" y2="77.9798" gradientTransform="matrix(1 0 0 -1 0 101.8898)">
					<stop  offset="0" style="stop-color:#50B2BF"/>
					<stop  offset="1" style="stop-color:#215B73"/>
				</linearGradient>
				<polygon class="st4" points="100.1,24.7 90.1,31.4 81,27.5 81,16.4 				"/>
			</g>
			<path class="st5" d="M81,37.5"/>
			
				<linearGradient id="SVGID_6_" gradientUnits="userSpaceOnUse" x1="49.77" y1="48.8398" x2="81" y2="48.8398" gradientTransform="matrix(1 0 0 -1 0 101.8898)">
				<stop  offset="0" style="stop-color:#50B2BF"/>
				<stop  offset="1" style="stop-color:#215B73"/>
			</linearGradient>
			<path class="st6" d="M59.9,36.7v12.3c0,9.3,4.4,17.9,11.6,22.5l9.5,6.1v12.1l-15-9.6c-10-6.4-16.3-18.3-16.3-31.1v-19l1-0.4
				L81,16.4v11.1l-20,8.8h0L59.9,36.7z"/>
		</g>
	</g>
</g>
</svg>
